<mxfile host="app.diagrams.net" modified="2020-04-16T02:19:15.824Z" agent="5.0 (Macintosh; Intel Mac OS X 10_15_3) AppleWebKit/537.36 (KHTML, like Gecko) Chrome/80.0.3987.163 Safari/537.36" etag="qwwP-wh3bGrS97mMFe1V" version="12.9.11" type="github">
  <diagram id="A6hQMs-x3wtN3bswwf9h" name="Page-1">
    <mxGraphModel dx="4074" dy="2151" grid="1" gridSize="10" guides="1" tooltips="1" connect="1" arrows="1" fold="1" page="1" pageScale="1" pageWidth="2600" pageHeight="1520" background="none" math="0" shadow="0" extFonts="Bangers^https://fonts.googleapis.com/css?family=Bangers">
      <root>
        <mxCell id="0" />
        <mxCell id="0BWv1SlqH8SNpjMiyKcr-60" value="Captain Marvel" parent="0" />
        <mxCell id="0BWv1SlqH8SNpjMiyKcr-63" value="" style="shape=image;imageAspect=0;aspect=fixed;verticalLabelPosition=bottom;verticalAlign=top;fillColor=#808080;fontFamily=Bangers;image=https://hallofheroeshome.files.wordpress.com/2020/02/captainmarvelmat.png;" vertex="1" parent="0BWv1SlqH8SNpjMiyKcr-60">
          <mxGeometry width="2600" height="1520" as="geometry" />
        </mxCell>
        <mxCell id="1" value="Basic Overlay" parent="0" />
        <mxCell id="0BWv1SlqH8SNpjMiyKcr-1" value="Hero Card" style="rounded=1;whiteSpace=wrap;html=1;aspect=fixed;fontFamily=Bangers;FType=g;fontSize=39;fillColor=#808080;strokeWidth=4;shadow=0;comic=0;glass=0;opacity=30;" vertex="1" parent="1">
          <mxGeometry x="20" y="470" width="360" height="540" as="geometry" />
        </mxCell>
        <mxCell id="0BWv1SlqH8SNpjMiyKcr-2" value="Life Counter" style="rounded=1;whiteSpace=wrap;html=1;fontFamily=Bangers;FType=g;fontSize=39;fillColor=#808080;strokeWidth=4;shadow=0;comic=0;glass=0;aspect=fixed;opacity=30;" vertex="1" parent="1">
          <mxGeometry x="30.000000000000455" y="160" width="180" height="120" as="geometry" />
        </mxCell>
        <mxCell id="0BWv1SlqH8SNpjMiyKcr-3" value="Discard" style="rounded=1;whiteSpace=wrap;html=1;aspect=fixed;fontFamily=Bangers;FType=g;fontSize=39;fillColor=#808080;strokeWidth=4;shadow=0;comic=0;glass=0;direction=south;opacity=30;" vertex="1" parent="1">
          <mxGeometry x="13" y="1270" width="360" height="240" as="geometry" />
        </mxCell>
        <mxCell id="0BWv1SlqH8SNpjMiyKcr-19" value="Deck" style="rounded=1;whiteSpace=wrap;html=1;aspect=fixed;fontFamily=Bangers;FType=g;fontSize=39;fillColor=#808080;strokeWidth=4;shadow=0;comic=0;glass=0;direction=south;opacity=30;" vertex="1" parent="1">
          <mxGeometry x="20" y="1020" width="360" height="240" as="geometry" />
        </mxCell>
        <mxCell id="0BWv1SlqH8SNpjMiyKcr-27" value="&lt;font style=&quot;font-size: 33px&quot;&gt;Draw Encounter Card&lt;/font&gt;" style="rounded=0;whiteSpace=wrap;html=1;fontFamily=Bangers;labelBackgroundColor=#CC0000;" vertex="1" parent="1">
          <mxGeometry x="930" y="40" width="140" height="120" as="geometry" />
        </mxCell>
        <mxCell id="0BWv1SlqH8SNpjMiyKcr-35" value="First Player" style="rounded=1;whiteSpace=wrap;html=1;fontFamily=Bangers;FType=g;fontSize=39;fillColor=#808080;strokeWidth=4;shadow=0;comic=0;glass=0;aspect=fixed;opacity=30;" vertex="1" parent="1">
          <mxGeometry x="30.000000000000455" y="20" width="180" height="120" as="geometry" />
        </mxCell>
        <mxCell id="0BWv1SlqH8SNpjMiyKcr-38" value="&lt;font style=&quot;font-size: 33px&quot;&gt;Flip&lt;/font&gt;" style="shape=flexArrow;endArrow=classic;fontFamily=Bangers;endWidth=88.57142857142858;endSize=21.614285714285717;width=71.42857142857143;fillColor=#FFFF00;strokeColor=#d6b656;labelBackgroundColor=#FFFF00;html=1;labelBorderColor=none;fontColor=#000000;" edge="1" parent="1">
          <mxGeometry width="50" height="50" relative="1" as="geometry">
            <mxPoint x="1370" y="210" as="sourcePoint" />
            <mxPoint x="1550" y="210" as="targetPoint" />
          </mxGeometry>
        </mxCell>
        <mxCell id="0BWv1SlqH8SNpjMiyKcr-59" value="" style="rounded=1;whiteSpace=wrap;html=1;aspect=fixed;fontFamily=Bangers;FType=g;fontSize=39;fillColor=#808080;strokeWidth=4;shadow=0;comic=0;glass=0;opacity=30;" vertex="1" parent="1">
          <mxGeometry x="2350" y="1150" width="240" height="360" as="geometry" />
        </mxCell>
        <mxCell id="0BWv1SlqH8SNpjMiyKcr-65" value="" style="rounded=1;whiteSpace=wrap;html=1;aspect=fixed;fontFamily=Bangers;FType=g;fontSize=39;fillColor=#808080;strokeWidth=4;shadow=0;comic=0;glass=0;opacity=30;" vertex="1" parent="1">
          <mxGeometry x="2100" y="1150" width="240" height="360" as="geometry" />
        </mxCell>
        <mxCell id="0BWv1SlqH8SNpjMiyKcr-66" value="" style="rounded=1;whiteSpace=wrap;html=1;aspect=fixed;fontFamily=Bangers;FType=g;fontSize=39;fillColor=#808080;strokeWidth=4;shadow=0;comic=0;glass=0;opacity=30;" vertex="1" parent="1">
          <mxGeometry x="1850" y="1150" width="240" height="360" as="geometry" />
        </mxCell>
        <mxCell id="0BWv1SlqH8SNpjMiyKcr-67" value="" style="rounded=1;whiteSpace=wrap;html=1;aspect=fixed;fontFamily=Bangers;FType=g;fontSize=39;fillColor=#808080;strokeWidth=4;shadow=0;comic=0;glass=0;opacity=30;" vertex="1" parent="1">
          <mxGeometry x="1600" y="1150" width="240" height="360" as="geometry" />
        </mxCell>
        <mxCell id="0BWv1SlqH8SNpjMiyKcr-68" value="" style="rounded=1;whiteSpace=wrap;html=1;aspect=fixed;fontFamily=Bangers;FType=g;fontSize=39;fillColor=#808080;strokeWidth=4;shadow=0;comic=0;glass=0;opacity=30;" vertex="1" parent="1">
          <mxGeometry x="1350" y="1150" width="240" height="360" as="geometry" />
        </mxCell>
        <mxCell id="0BWv1SlqH8SNpjMiyKcr-69" value="" style="rounded=1;whiteSpace=wrap;html=1;aspect=fixed;fontFamily=Bangers;FType=g;fontSize=39;fillColor=#808080;strokeWidth=4;shadow=0;comic=0;glass=0;opacity=30;" vertex="1" parent="1">
          <mxGeometry x="1100" y="1150" width="240" height="360" as="geometry" />
        </mxCell>
        <mxCell id="0BWv1SlqH8SNpjMiyKcr-70" value="" style="rounded=1;whiteSpace=wrap;html=1;aspect=fixed;fontFamily=Bangers;FType=g;fontSize=39;fillColor=#808080;strokeWidth=4;shadow=0;comic=0;glass=0;opacity=30;" vertex="1" parent="1">
          <mxGeometry x="1100" y="780" width="240" height="360" as="geometry" />
        </mxCell>
        <mxCell id="0BWv1SlqH8SNpjMiyKcr-71" value="" style="rounded=1;whiteSpace=wrap;html=1;aspect=fixed;fontFamily=Bangers;FType=g;fontSize=39;fillColor=#808080;strokeWidth=4;shadow=0;comic=0;glass=0;opacity=30;" vertex="1" parent="1">
          <mxGeometry x="1350" y="780" width="240" height="360" as="geometry" />
        </mxCell>
        <mxCell id="0BWv1SlqH8SNpjMiyKcr-72" value="" style="rounded=1;whiteSpace=wrap;html=1;aspect=fixed;fontFamily=Bangers;FType=g;fontSize=39;fillColor=#808080;strokeWidth=4;shadow=0;comic=0;glass=0;opacity=30;" vertex="1" parent="1">
          <mxGeometry x="1600" y="780" width="240" height="360" as="geometry" />
        </mxCell>
        <mxCell id="0BWv1SlqH8SNpjMiyKcr-73" value="" style="rounded=1;whiteSpace=wrap;html=1;aspect=fixed;fontFamily=Bangers;FType=g;fontSize=39;fillColor=#808080;strokeWidth=4;shadow=0;comic=0;glass=0;opacity=30;" vertex="1" parent="1">
          <mxGeometry x="1850" y="780" width="240" height="360" as="geometry" />
        </mxCell>
        <mxCell id="0BWv1SlqH8SNpjMiyKcr-74" value="" style="rounded=1;whiteSpace=wrap;html=1;aspect=fixed;fontFamily=Bangers;FType=g;fontSize=39;fillColor=#808080;strokeWidth=4;shadow=0;comic=0;glass=0;opacity=30;" vertex="1" parent="1">
          <mxGeometry x="2100" y="780" width="240" height="360" as="geometry" />
        </mxCell>
        <mxCell id="0BWv1SlqH8SNpjMiyKcr-75" value="" style="rounded=1;whiteSpace=wrap;html=1;aspect=fixed;fontFamily=Bangers;FType=g;fontSize=39;fillColor=#808080;strokeWidth=4;shadow=0;comic=0;glass=0;opacity=30;" vertex="1" parent="1">
          <mxGeometry x="2350" y="780" width="240" height="360" as="geometry" />
        </mxCell>
        <mxCell id="0BWv1SlqH8SNpjMiyKcr-76" value="" style="rounded=1;whiteSpace=wrap;html=1;aspect=fixed;fontFamily=Bangers;FType=g;fontSize=39;fillColor=#808080;strokeWidth=4;shadow=0;comic=0;glass=0;opacity=30;" vertex="1" parent="1">
          <mxGeometry x="1100" y="410" width="240" height="360" as="geometry" />
        </mxCell>
        <mxCell id="0BWv1SlqH8SNpjMiyKcr-77" value="" style="rounded=1;whiteSpace=wrap;html=1;aspect=fixed;fontFamily=Bangers;FType=g;fontSize=39;fillColor=#808080;strokeWidth=4;shadow=0;comic=0;glass=0;opacity=30;" vertex="1" parent="1">
          <mxGeometry x="1350" y="410" width="240" height="360" as="geometry" />
        </mxCell>
        <mxCell id="0BWv1SlqH8SNpjMiyKcr-78" value="" style="rounded=1;whiteSpace=wrap;html=1;aspect=fixed;fontFamily=Bangers;FType=g;fontSize=39;fillColor=#808080;strokeWidth=4;shadow=0;comic=0;glass=0;opacity=30;" vertex="1" parent="1">
          <mxGeometry x="1600" y="410" width="240" height="360" as="geometry" />
        </mxCell>
        <mxCell id="0BWv1SlqH8SNpjMiyKcr-79" value="" style="rounded=1;whiteSpace=wrap;html=1;aspect=fixed;fontFamily=Bangers;FType=g;fontSize=39;fillColor=#808080;strokeWidth=4;shadow=0;comic=0;glass=0;opacity=30;" vertex="1" parent="1">
          <mxGeometry x="1850" y="410" width="240" height="360" as="geometry" />
        </mxCell>
        <mxCell id="0BWv1SlqH8SNpjMiyKcr-80" value="" style="rounded=1;whiteSpace=wrap;html=1;aspect=fixed;fontFamily=Bangers;FType=g;fontSize=39;fillColor=#808080;strokeWidth=4;shadow=0;comic=0;glass=0;opacity=30;" vertex="1" parent="1">
          <mxGeometry x="2100" y="410" width="240" height="360" as="geometry" />
        </mxCell>
        <mxCell id="0BWv1SlqH8SNpjMiyKcr-81" value="" style="rounded=1;whiteSpace=wrap;html=1;aspect=fixed;fontFamily=Bangers;FType=g;fontSize=39;fillColor=#808080;strokeWidth=4;shadow=0;comic=0;glass=0;opacity=30;" vertex="1" parent="1">
          <mxGeometry x="2350" y="410" width="240" height="360" as="geometry" />
        </mxCell>
        <mxCell id="0BWv1SlqH8SNpjMiyKcr-82" value="" style="rounded=1;whiteSpace=wrap;html=1;aspect=fixed;fontFamily=Bangers;FType=g;fontSize=39;fillColor=#808080;strokeWidth=4;shadow=0;comic=0;glass=0;opacity=30;" vertex="1" parent="1">
          <mxGeometry x="1100" y="40" width="240" height="360" as="geometry" />
        </mxCell>
        <mxCell id="0BWv1SlqH8SNpjMiyKcr-84" value="" style="rounded=1;whiteSpace=wrap;html=1;aspect=fixed;fontFamily=Bangers;FType=g;fontSize=39;fillColor=#808080;strokeWidth=4;shadow=0;comic=0;glass=0;opacity=30;" vertex="1" parent="1">
          <mxGeometry x="1600" y="40" width="240" height="360" as="geometry" />
        </mxCell>
        <mxCell id="0BWv1SlqH8SNpjMiyKcr-85" value="" style="rounded=1;whiteSpace=wrap;html=1;aspect=fixed;fontFamily=Bangers;FType=g;fontSize=39;fillColor=#808080;strokeWidth=4;shadow=0;comic=0;glass=0;opacity=30;" vertex="1" parent="1">
          <mxGeometry x="1850" y="40" width="240" height="360" as="geometry" />
        </mxCell>
        <mxCell id="0BWv1SlqH8SNpjMiyKcr-86" value="" style="rounded=1;whiteSpace=wrap;html=1;aspect=fixed;fontFamily=Bangers;FType=g;fontSize=39;fillColor=#808080;strokeWidth=4;shadow=0;comic=0;glass=0;opacity=30;" vertex="1" parent="1">
          <mxGeometry x="2100" y="40" width="240" height="360" as="geometry" />
        </mxCell>
        <mxCell id="0BWv1SlqH8SNpjMiyKcr-87" value="" style="rounded=1;whiteSpace=wrap;html=1;aspect=fixed;fontFamily=Bangers;FType=g;fontSize=39;fillColor=#808080;strokeWidth=4;shadow=0;comic=0;glass=0;opacity=30;" vertex="1" parent="1">
          <mxGeometry x="2350" y="40" width="240" height="360" as="geometry" />
        </mxCell>
        <mxCell id="0BWv1SlqH8SNpjMiyKcr-90" value="Discard" style="rhombus;whiteSpace=wrap;html=1;labelBackgroundColor=#CC0000;fillColor=#CC0000;fontFamily=Bangers;fontColor=#000000;" vertex="1" parent="1">
          <mxGeometry x="1680" width="80" height="80" as="geometry" />
        </mxCell>
        <mxCell id="0BWv1SlqH8SNpjMiyKcr-91" value="Discard" style="rhombus;whiteSpace=wrap;html=1;labelBackgroundColor=#CC0000;fillColor=#CC0000;fontFamily=Bangers;fontColor=#000000;" vertex="1" parent="1">
          <mxGeometry x="1930" width="80" height="80" as="geometry" />
        </mxCell>
        <mxCell id="0BWv1SlqH8SNpjMiyKcr-92" value="Discard" style="rhombus;whiteSpace=wrap;html=1;labelBackgroundColor=#CC0000;fillColor=#CC0000;fontFamily=Bangers;fontColor=#000000;" vertex="1" parent="1">
          <mxGeometry x="2180" width="80" height="80" as="geometry" />
        </mxCell>
        <mxCell id="0BWv1SlqH8SNpjMiyKcr-93" value="Discard" style="rhombus;whiteSpace=wrap;html=1;labelBackgroundColor=#CC0000;fillColor=#CC0000;fontFamily=Bangers;fontColor=#000000;" vertex="1" parent="1">
          <mxGeometry x="2430" width="80" height="80" as="geometry" />
        </mxCell>
      </root>
    </mxGraphModel>
  </diagram>
</mxfile>
